# AST/ASF file generated using VICON BodyLanguage
# -----------------------------------------------
:version 1.10
:name VICON
:units
  mass 1.0
  length 0.45
  angle deg
:documentation
   .ast/.asf automatically generated from VICON data using
   VICON BodyBuilder and BodyLanguage model FoxedUp or BRILLIANT.MOD
:root
   order TX TY TZ RX RY RZ
   axis XYZ
   position 0 0 0  
   orientation 0 0 0 
:bonedata
  begin
     id 1 
     name lhipjoint
     direction 0.537252 -0.787203 0.302774 
     length 2.29576 
     axis 0 0 0  XYZ
  end
  begin
     id 2 
     name lfemur
     direction 0.34202 -0.939693 0  
     length 7.31114  
     axis 0 0 20  XYZ
    dof rx ry rz
    limits (-160.0 20.0)
           (-70.0 70.0)
           (-60.0 70.0)
  end
  begin
     id 3 
     name ltibia
     direction 0.34202 -0.939693 0   
     length 8.36008   
     axis 0 0 20   XYZ
    dof rx
    limits (-10.0 170.0)
  end
  begin
     id 4 
     name lfoot
     direction 0.0969116 -0.266263 0.959016   
     length 2.16704   
     axis -90 7.62852e-016 20   XYZ
    dof rx rz
    limits (-45.0 90.0)
           (-70.0 20.0)
  end
  begin
     id 5 
     name ltoes
     direction 1.53563e-011 -4.21779e-011 1   
     length 1.08338   
     axis -90 7.62852e-016 20   XYZ
    dof rx
    limits (-90.0 20.0)
  end
  begin
     id 6 
     name rhipjoint
     direction -0.588228 -0.754791 0.290308   
     length 2.39434  
     axis 0 0 0  XYZ 
  end
  begin
     id 7 
     name rfemur
     direction -0.34202 -0.939693 0   
     length 7.45207   
     axis 0 0 -20   XYZ
    dof rx ry rz
    limits (-160.0 20.0)
           (-70.0 70.0)
           (-70.0 60.0)
  end
  begin
     id 8 
     name rtibia
     direction -0.34202 -0.939693 0   
     length 8.03565   
     axis 0 0 -20   XYZ
    dof rx
    limits (-10.0 170.0)
 end
 begin
     id 9 
     name rfoot
     direction -0.107009 -0.294004 0.949795   
     length 2.11509  
     axis -90 -7.62852e-016 -20   XYZ
    dof rx rz
    limits (-45.0 90.0)
           (-20.0 70.0)
  end
  begin
     id 10 
     name rtoes
     direction -1.53533e-011 -4.22004e-011 1   
     length 1.05493   
     axis -90 -7.62852e-016 -20   XYZ
    dof rx
    limits (-90.0 20.0)
  end
  begin
     id 11 
     name lowerback
     direction -0.0115208 0.997969 -0.0626515   
     length 2.03153   
     axis 0 0 0   XYZ
    dof rx ry rz
    limits (-20.0 45.0)
           (-30.0 30.0)
           (-30.0 30.0)
  end
  begin
     id 12 
     name upperback
     direction -0.00423475 0.999974 -0.00583614   
     length 2.03619   
     axis 0 0 0   XYZ
    dof rx ry rz
    limits (-20.0 45.0)
           (-30.0 30.0)
           (-30.0 30.0)
  end
  begin
     id 13 
     name thorax
     direction 0.00289429 0.999728 0.0231573   
     length 2.03921   
     axis 0 0 0   XYZ
    dof rx ry rz
    limits (-20.0 45.0)
           (-30.0 30.0)
           (-30.0 30.0)
  end
  begin
     id 14 
     name lowerneck
     direction 0.0188995 0.987777 0.154721   
     length 1.78836   
     axis 0 0 0   XYZ
    dof rx ry rz
    limits (-20.0 45.0)
           (-30.0 30.0)
           (-30.0 30.0)
  end
  begin
     id 15 
     name upperneck
     direction -0.00612612 0.992995 -0.118   
     length 1.81789   
     axis 0 0 0   XYZ
    dof rx ry rz
    limits (-20.0 45.0)
           (-30.0 30.0)
           (-30.0 30.0)
  end
  begin
     id 16
     name head
     direction -0.00420226 0.998397 -0.0564482  
     length 1.82234  
     axis 0 0 0   XYZ
    dof rx ry rz
    limits (-20.0 45.0)
           (-30.0 30.0)
           (-30.0 30.0)
  end
  begin
     id 17 
     name lclavicle
     direction 0.916488 0.396539 0.0529676  
     length 3.51732  
     axis 0 0 0   XYZ
    dof ry rz
    limits (-20.0 10.0)
           (0.0 20.0)
  end
  begin
     id 18 
     name lhumerus
     direction 1 -4.4896e-011 8.36962e-028   
     length 5.45077   
     axis 180 -30 -90   XYZ
    dof rx ry rz
    limits (-60.0 90.0)
           (-90.0 90.0)
           (-90.0 90.0)
  end
  begin
     id 19
     name lradius
     direction 1 -4.48962e-011 3.01407e-027   
     length 3.05488   
     axis 180 -30 -90   XYZ
    dof rx
    limits (-10.0 170.0)
  end
  begin
     id 20
     name lwrist
     direction 1 -4.49002e-011 4.72961e-027   
     length 1.52744   
     axis -2.72261e-015 90 90   XYZ
    dof ry
    limits (-180.0 0.0)
 end
  begin
     id 21 
     name lhand
     direction 1 -4.4899e-011 9.45681e-027   
     length 0.638818   
     axis -6.0311e-015 90 90   XYZ
    dof rx rz
    limits (-90.0 90.0)
           (-45.0 45.0)
  end
  begin
     id 22 
     name lfingers
     direction 1 -4.48871e-011 1.88632e-026   
     length 0.515032   
     axis -1.20625e-014 90 90   XYZ
    dof rx
    limits (0.0 90.0)
  end
  begin
     id 23
     name lthumb
     direction 0.707107 -6.34964e-011 0.707107   
     length 0.739485   
     axis -90 45 6.32835e-014   XYZ
    dof rx rz
    limits (-45.0 45.0)
           (-45.0 45.0)
  end
  begin
     id 24 
     name rclavicle
     direction -0.949427 0.303202 0.0815894   
     length 3.76167  
     axis 0 0 0   XYZ 
    dof ry rz
    limits (-10.0 20.0)
           (-20.0 0.0)
  end
  begin
     id 25 
     name rhumerus
     direction -1 -4.48971e-011 -6.43969e-018  
     length 4.88702   
     axis 180 30 90   XYZ
    dof rx ry rz
    limits (-90.0 60.0)
           (-90.0 90.0)
           (-90.0 90.0)
  end
  begin
     id 26 
     name rradius
     direction -1 -4.48987e-011 5.46662e-027   
     length 3.22603   
     axis 180 30 90   XYZ
    dof rx
    limits (-10.0 170.0)
  end
  begin
     id 27 
     name rwrist
     direction -1 -4.48956e-011 4.72476e-027   
     length 1.61302   
     axis -2.72261e-015 -90 -90   XYZ
    dof ry
    limits (-180.0 0.0)
  end
  begin
     id 28
     name rhand
     direction -1 -4.4889e-011 9.43571e-027   
     length 0.716293   
     axis -6.0311e-015 -90 -90   XYZ
    dof rx rz
    limits (-90.0 90.0)
           (-45.0 45.0)
  end
  begin
     id 29
     name rfingers
     direction -1 -4.48887e-011 1.88701e-026   
     length 0.577494   
     axis -1.20625e-014 -90 -90   XYZ
    dof rx
    limits (0.0 90.0)
  end
  begin
     id 30
     name rthumb
     direction -0.707107 -6.34825e-011 0.707107   
     length 0.829169   
     axis -90 -45 -6.32835e-014   XYZ
    dof rx rz
    limits (-45.0 45.0)
           (-45.0 45.0)
  end
:hierarchy
  begin
    root lhipjoint rhipjoint lowerback
    lhipjoint lfemur
    lfemur ltibia
    ltibia lfoot
    lfoot ltoes
    rhipjoint rfemur
    rfemur rtibia
    rtibia rfoot
    rfoot rtoes
    lowerback upperback
    upperback thorax
    thorax lowerneck lclavicle rclavicle
    lowerneck upperneck
    upperneck head
    lclavicle lhumerus
    lhumerus lradius
    lradius lwrist
    lwrist lhand lthumb
    lhand lfingers
    rclavicle rhumerus
    rhumerus rradius
    rradius rwrist
    rwrist rhand rthumb
    rhand rfingers
  end

#!OML:ASF F:\VICON\USERDATA\INSTALL\rory3\rory3.ASF
:FULLY-SPECIFIED
:DEGREES
648
root 1.72422 18.4714 0.0609536 29.7811 91.6079 19.4307
lowerback -8.95136 -1.25782 0.634397
upperback -3.11 -1.6444 0.403759
thorax 1.78847 -0.781372 -0.108019
lowerneck -14.621 -2.83357 -0.511359
upperneck 18.7166 -3.8338 0.794882
head 8.24695 -1.71729 -0.0767114
rclavicle 2.08771e-014 -2.83268e-015
rhumerus -30.3475 -8.39569 -85.4453
rradius 38.6914
rwrist -154.131
rhand -23.0434 -6.53697
rfingers 7.12502
rthumb 3.40114 -36.4896
lclavicle 2.08771e-014 -2.83268e-015
lhumerus -36.7468 -14.0828 92.6922
lradius 33.9022
lwrist 12.2223
lhand -9.38531 27.064
lfingers 7.12502
lthumb 16.5755 56.3761
rfemur -2.9042 -12.0608 17.8881
rtibia -1.59028e-015
rfoot -6.93917 0.50662
rtoes -16.39
lfemur -12.5381 8.66035 -17.2639
ltibia 19.2151
lfoot -15.986 -3.51498
ltoes -27.702
649
root 1.72305 18.4721 0.064597 29.3564 91.6197 19.0047
lowerback -8.94945 -1.26356 0.590735
upperback -3.12615 -1.64775 0.411646
thorax 1.77221 -0.782728 -0.075468
lowerneck -14.61 -2.8235 -0.593808
upperneck 18.7608 -3.81909 0.886075
head 8.26346 -1.70592 -0.0312604
rclavicle -9.599e-015 7.95139e-016
rhumerus -30.3823 -8.41003 -85.4136
rradius 38.7153
rwrist -154.174
rhand -23.0666 -6.55053
rfingers 7.12502
rthumb 3.37878 -36.5035
lclavicle -9.599e-015 7.95139e-016
lhumerus -36.827 -14.032 92.689
lradius 33.9778
lwrist 12.0357
lhand -9.4988 26.9299
lfingers 7.12502
lthumb 16.4662 56.2511
rfemur -2.90864 -12.0759 17.8927
rtibia -1.03368e-014
rfoot -6.92039 0.513035
rtoes -16.4198
lfemur -12.5486 8.64604 -17.2586
ltibia 19.2145
lfoot -15.9855 -3.52391
ltoes -27.6971
650
root 1.72272 18.4714 0.0686245 28.0048 91.6159 17.6597
lowerback -8.94663 -1.27047 0.509751
upperback -3.12324 -1.65015 0.411883
thorax 1.77602 -0.783741 -0.0300198
lowerneck -14.6261 -2.81085 -0.580095
upperneck 18.7823 -3.80761 0.899266
head 8.27348 -1.69768 -0.0281943
rclavicle -1.25987e-014 -7.92654e-015
rhumerus -30.3981 -8.413 -85.4082
rradius 38.7757
rwrist -154.194
rhand -23.0789 -6.49387
rfingers 7.12502
rthumb 3.36687 -36.447
lclavicle -1.25987e-014 -7.92654e-015
lhumerus -36.8477 -14.0022 92.7175
lradius 33.9623
lwrist 12.0659
lhand -9.71845 27.0542
lfingers 7.12502
lthumb 16.2548 56.3928
rfemur -2.90835 -12.0896 17.8627
rtibia 3.18055e-015
rfoot -6.93299 0.49258
rtoes -16.5406
lfemur -12.5414 8.58316 -17.2791
ltibia 19.2056
lfoot -15.9575 -3.48183
ltoes -27.485
651
root 1.7205 18.4709 0.071684 26.8532 91.6085 16.5072
lowerback -8.9147 -1.27291 0.4502
upperback -3.13084 -1.64812 0.415699
thorax 1.75243 -0.782626 0.0083607
lowerneck -14.6126 -2.80871 -0.560887
upperneck 18.7515 -3.80267 0.868222
head 8.25958 -1.69777 -0.0407128
rclavicle -1.11624e-014 -2.45996e-015
rhumerus -30.3674 -8.40418 -85.3994
rradius 38.7694
rwrist -154.191
rhand -23.1189 -6.46992
rfingers 7.12502
rthumb 3.32832 -36.4237
lclavicle -1.11624e-014 -2.45996e-015
lhumerus -36.8927 -14.0403 92.7886
lradius 33.9755
lwrist 12.1381
lhand -9.72129 27.2987
lfingers 7.12502
lthumb 16.252 56.6376
rfemur -2.91257 -12.0975 17.8337
rtibia 6.36111e-015
rfoot -6.9601 0.508493
rtoes -16.253
lfemur -12.5469 8.48758 -17.3011
ltibia 19.1909
lfoot -15.9372 -3.41642
ltoes -27.2575
652
root 1.71756 18.4721 0.0736386 28.2795 91.6481 17.9037
lowerback -8.89445 -1.27217 0.495914
upperback -3.16088 -1.65024 0.439496
thorax 1.70961 -0.783462 0.00791326
lowerneck -14.6236 -2.80566 -0.536623
upperneck 18.7761 -3.79564 0.827967
head 8.26839 -1.69641 -0.0576315
rclavicle -3.82434e-014 -1.2921e-015
rhumerus -30.3435 -8.40311 -85.3826
rradius 38.7348
rwrist -154.138
rhand -23.1363 -6.44
rfingers 7.12502
rthumb 3.31146 -36.394
lclavicle -3.82434e-014 -1.2921e-015
lhumerus -36.9391 -14.0104 92.8312
lradius 34.0315
lwrist 12.125
lhand -10.1853 26.3649
lfingers 7.12502
lthumb 15.8052 55.7396
rfemur -2.94615 -12.1138 17.9062
rtibia 1.03368e-014
rfoot -6.97289 0.528239
rtoes -16.0403
lfemur -12.6024 8.43403 -17.2432
ltibia 19.1904
lfoot -15.9312 -3.35145
ltoes -27.3019
653
root 1.71659 18.4729 0.0759189 28.4204 91.7166 18.0475
lowerback -8.89522 -1.29456 0.512594
upperback -3.15545 -1.68178 0.448489
thorax 1.71532 -0.799244 0.00452751
lowerneck -14.6435 -2.79524 -0.510702
upperneck 18.7987 -3.78516 0.817124
head 8.27872 -1.69027 -0.0647632
rclavicle 4.83295e-015 6.26172e-015
rhumerus -30.3066 -8.48567 -85.371
rradius 38.7167
rwrist -154.049
rhand -23.1064 -6.42926
rfingers 7.12502
rthumb 3.34034 -36.3828
lclavicle 4.83295e-015 6.26172e-015
lhumerus -36.9619 -13.9681 92.8427
lradius 34.0984
lwrist 12.2136
lhand -12.0689 23.0129
lfingers 7.12502
lthumb 13.9907 52.5221
rfemur -2.95 -12.1698 17.9588
rtibia -5.56597e-015
rfoot -6.98335 0.516013
rtoes -16.3946
lfemur -12.6145 8.40048 -17.2017
ltibia 19.1848
lfoot -15.9599 -3.34545
ltoes -27.6653
654
root 1.71661 18.4725 0.0783374 28.298 91.7364 17.9538
lowerback -8.86539 -1.29716 0.502058
upperback -3.15203 -1.6846 0.453365
thorax 1.70288 -0.800782 0.0158178
lowerneck -14.6369 -2.79555 -0.442082
upperneck 18.8144 -3.78475 0.737426
head 8.27964 -1.6931 -0.102528
rclavicle -7.52953e-015 -1.26228e-014
rhumerus -30.3328 -8.50048 -85.3439
rradius 38.7569
rwrist -154.115
rhand -23.1314 -6.48846
rfingers 7.12502
rthumb 3.31622 -36.4424
lclavicle -7.52953e-015 -1.26228e-014
lhumerus -36.9965 -13.9591 92.8772
lradius 34.1536
lwrist 12.4221
lhand -9.58045 26.8618
lfingers 7.12502
lthumb 16.3876 56.1896
rfemur -2.91794 -12.187 17.9638
rtibia -1.59028e-015
rfoot -7.00278 0.523781
rtoes -16.2314
lfemur -12.5582 8.36646 -17.1824
ltibia 19.168
lfoot -15.927 -3.31991
ltoes -27.7337
655
root 1.71529 18.4718 0.081248 26.2483 91.7284 15.9304
lowerback -8.826 -1.29636 0.44267
upperback -3.153 -1.6779 0.422536
thorax 1.68102 -0.797587 0.0189654
lowerneck -14.5975 -2.79656 -0.399942
upperneck 18.7895 -3.79032 0.712054
head 8.26279 -1.69576 -0.117725
rclavicle -2.5442e-014 -1.27968e-014
rhumerus -30.3519 -8.48005 -85.3697
rradius 38.7965
rwrist -154.132
rhand -23.1152 -6.47755
rfingers 7.12502
rthumb 3.33182 -36.4313
lclavicle -2.5442e-014 -1.27968e-014
lhumerus -36.9829 -13.9464 92.8513
lradius 34.0925
lwrist 12.4428
lhand -8.57742 28.1753
lfingers 7.12502
lthumb 17.3532 57.4206
rfemur -2.88084 -12.208 17.892
rtibia 1.51076e-014
rfoot -7.02251 0.553779
rtoes -16.0819
lfemur -12.5085 8.40871 -17.2366
ltibia 19.1279
lfoot -15.899 -3.42018
ltoes -27.47
656
root 1.71335 18.4709 0.0854153 23.9743 91.7182 13.6582
lowerback -8.82137 -1.29864 0.363781
upperback -3.14755 -1.67396 0.394947
thorax 1.6856 -0.795579 0.0352113
lowerneck -14.6203 -2.81605 -0.467907
upperneck 18.8007 -3.81822 0.791644
head 8.274 -1.70538 -0.083684
rclavicle 1.85625e-015 2.18663e-015
rhumerus -30.3289 -8.39956 -85.4025
rradius 38.796
rwrist -154.186
rhand -23.2116 -6.40245
rfingers 7.12502
rthumb 3.23875 -36.3576
lclavicle 1.85625e-015 2.18663e-015
lhumerus -36.989 -14.061 92.9091
lradius 34.1018
lwrist 12.7214
lhand -8.86101 27.9015
lfingers 7.12502
lthumb 17.0802 57.1706
rfemur -2.88657 -12.2261 17.8363
rtibia -1.59028e-015
rfoot -6.96934 0.536038
rtoes -16.3661
lfemur -12.502 8.38245 -17.3008
ltibia 19.0787
lfoot -15.855 -3.4061
ltoes -27.4898
657
root 1.71295 18.4701 0.0912297 23.1622 91.7754 12.8655
lowerback -8.81968 -1.30906 0.327072
upperback -3.13284 -1.68502 0.38323
thorax 1.70058 -0.801191 0.0424403
lowerneck -14.6148 -2.81557 -0.447349
upperneck 18.7883 -3.81916 0.77645
head 8.26809 -1.70614 -0.0920503
rclavicle -9.40661e-015 5.92627e-015
rhumerus -30.3352 -8.44802 -85.4149
rradius 38.8057
rwrist -154.197
rhand -23.1941 -6.46048
rfingers 7.12502
rthumb 3.25565 -36.4154
lclavicle -9.40661e-015 5.92627e-015
lhumerus -37.0176 -14.2454 92.9852
lradius 34.1861
lwrist 13.0521
lhand -9.08428 27.6625
lfingers 7.12502
lthumb 16.8653 56.9501
rfemur -2.85263 -12.2854 17.85
rtibia 1.66979e-014
rfoot -6.98412 0.542896
rtoes -16.1002
lfemur -12.4723 8.40251 -17.2831
ltibia 19.0213
lfoot -15.819 -3.48524
ltoes -27.469
658
root 1.71377 18.4706 0.0944514 22.6567 91.8406 12.3408
lowerback -8.85427 -1.33056 0.299677
upperback -3.13944 -1.71107 0.393363
thorax 1.71392 -0.813774 0.064899
lowerneck -14.609 -2.80219 -0.411811
upperneck 18.8256 -3.79641 0.718585
head 8.27741 -1.69809 -0.114723
rclavicle -3.48209e-014 -6.47293e-015
rhumerus -30.3515 -8.40388 -85.429
rradius 38.8229
rwrist -154.233
rhand -23.0599 -6.44036
rfingers 7.12502
rthumb 3.38524 -36.3932
lclavicle -3.48209e-014 -6.47293e-015
lhumerus -37.0332 -14.1788 92.9518
lradius 34.2275
lwrist 12.9311
lhand -9.16585 27.546
lfingers 7.12502
lthumb 16.7868 56.8403
rfemur -2.85469 -12.3515 17.8738
rtibia 1.98785e-014
rfoot -7.00343 0.538207
rtoes -15.7617
lfemur -12.4633 8.33292 -17.2619
ltibia 18.9745
lfoot -15.801 -3.48528
ltoes -27.4502
659
root 1.71278 18.4721 0.0965292 22.5737 91.8538 12.2159
lowerback -8.89509 -1.31715 0.31311
upperback -3.14153 -1.69404 0.38948
thorax 1.73374 -0.805098 0.0541654
lowerneck -14.6291 -2.80904 -0.444621
upperneck 18.8303 -3.80272 0.739449
head 8.28379 -1.70117 -0.103456
rclavicle 6.77114e-015 2.06239e-015
rhumerus -30.3466 -8.39354 -85.4065
rradius 38.8553
rwrist -154.326
rhand -23.0124 -6.52329
rfingers 7.12502
rthumb 3.43108 -36.4754
lclavicle 6.77114e-015 2.06239e-015
lhumerus -37.0035 -14.0821 92.8772
lradius 34.265
lwrist 12.5539
lhand -9.31997 27.3039
lfingers 7.12502
lthumb 16.6384 56.6107
rfemur -2.90556 -12.366 17.8895
rtibia 1.03368e-014
rfoot -6.98096 0.538207
rtoes -15.6102
lfemur -12.4957 8.21205 -17.2479
ltibia 18.9541
lfoot -15.8049 -3.38683
ltoes -27.3884
